<mxfile host="app.diagrams.net" modified="2023-10-11T17:49:26.832Z" agent="Mozilla/5.0 (Windows NT 10.0; Win64; x64) AppleWebKit/537.36 (KHTML, like Gecko) Chrome/116.0.5845.967 YaBrowser/23.9.1.967 Yowser/2.5 Safari/537.36" etag="Nvg5MIi4UmKkYToqkDZT" version="22.0.4" type="device">
  <diagram name="Page-1" id="0783ab3e-0a74-02c8-0abd-f7b4e66b4bec">
    <mxGraphModel dx="470" dy="268" grid="1" gridSize="10" guides="1" tooltips="1" connect="1" arrows="1" fold="1" page="1" pageScale="1" pageWidth="850" pageHeight="1100" background="none" math="0" shadow="0">
      <root>
        <mxCell id="0" />
        <mxCell id="1" parent="0" />
        <mxCell id="eR2ikbyH4FNa1QQmH7Wa-1" value="" style="ellipse;html=1;shape=startState;fillColor=#000000;strokeColor=#ff0000;" vertex="1" parent="1">
          <mxGeometry x="380" y="10" width="30" height="30" as="geometry" />
        </mxCell>
        <mxCell id="eR2ikbyH4FNa1QQmH7Wa-2" value="" style="edgeStyle=orthogonalEdgeStyle;html=1;verticalAlign=bottom;endArrow=open;endSize=8;strokeColor=#ff0000;rounded=0;" edge="1" source="eR2ikbyH4FNa1QQmH7Wa-1" parent="1">
          <mxGeometry relative="1" as="geometry">
            <mxPoint x="395" y="80" as="targetPoint" />
          </mxGeometry>
        </mxCell>
        <mxCell id="eR2ikbyH4FNa1QQmH7Wa-3" value="Получение запроса на оформление заказа" style="rounded=1;whiteSpace=wrap;html=1;" vertex="1" parent="1">
          <mxGeometry x="335" y="80" width="120" height="60" as="geometry" />
        </mxCell>
        <mxCell id="eR2ikbyH4FNa1QQmH7Wa-4" value="" style="rounded=1;whiteSpace=wrap;html=1;" vertex="1" parent="1">
          <mxGeometry x="240" y="180" width="310" height="120" as="geometry" />
        </mxCell>
        <mxCell id="eR2ikbyH4FNa1QQmH7Wa-5" value="" style="ellipse;html=1;shape=startState;fillColor=#000000;strokeColor=#ff0000;" vertex="1" parent="1">
          <mxGeometry x="375" y="180" width="30" height="30" as="geometry" />
        </mxCell>
        <mxCell id="eR2ikbyH4FNa1QQmH7Wa-6" value="" style="edgeStyle=orthogonalEdgeStyle;html=1;verticalAlign=bottom;endArrow=open;endSize=8;strokeColor=#ff0000;rounded=0;entryX=0.5;entryY=0;entryDx=0;entryDy=0;" edge="1" source="eR2ikbyH4FNa1QQmH7Wa-5" parent="1" target="eR2ikbyH4FNa1QQmH7Wa-8">
          <mxGeometry relative="1" as="geometry">
            <mxPoint x="395" y="240" as="targetPoint" />
          </mxGeometry>
        </mxCell>
        <mxCell id="eR2ikbyH4FNa1QQmH7Wa-7" value="" style="ellipse;html=1;shape=endState;fillColor=#000000;strokeColor=#ff0000;" vertex="1" parent="1">
          <mxGeometry x="470" y="260" width="30" height="30" as="geometry" />
        </mxCell>
        <mxCell id="eR2ikbyH4FNa1QQmH7Wa-8" value="" style="rhombus;whiteSpace=wrap;html=1;" vertex="1" parent="1">
          <mxGeometry x="365" y="220" width="50" height="20" as="geometry" />
        </mxCell>
        <mxCell id="eR2ikbyH4FNa1QQmH7Wa-9" value="&lt;font style=&quot;font-size: 8px;&quot;&gt;Оформление заказа&lt;/font&gt;" style="rounded=1;whiteSpace=wrap;html=1;" vertex="1" parent="1">
          <mxGeometry x="265" y="260" width="65" height="30" as="geometry" />
        </mxCell>
        <mxCell id="eR2ikbyH4FNa1QQmH7Wa-10" value="Оформление счета" style="rounded=1;whiteSpace=wrap;html=1;" vertex="1" parent="1">
          <mxGeometry x="335" y="340" width="120" height="60" as="geometry" />
        </mxCell>
        <mxCell id="eR2ikbyH4FNa1QQmH7Wa-11" value="Оформление накладной" style="rounded=1;whiteSpace=wrap;html=1;" vertex="1" parent="1">
          <mxGeometry x="335" y="430" width="120" height="60" as="geometry" />
        </mxCell>
        <mxCell id="eR2ikbyH4FNa1QQmH7Wa-17" value="Выдача заказа" style="rounded=1;whiteSpace=wrap;html=1;" vertex="1" parent="1">
          <mxGeometry x="335" y="690" width="120" height="60" as="geometry" />
        </mxCell>
        <mxCell id="eR2ikbyH4FNa1QQmH7Wa-18" value="" style="ellipse;html=1;shape=endState;fillColor=#000000;strokeColor=#ff0000;" vertex="1" parent="1">
          <mxGeometry x="380" y="810" width="30" height="30" as="geometry" />
        </mxCell>
        <mxCell id="eR2ikbyH4FNa1QQmH7Wa-19" value="" style="rounded=1;whiteSpace=wrap;html=1;" vertex="1" parent="1">
          <mxGeometry x="240" y="520" width="310" height="120" as="geometry" />
        </mxCell>
        <mxCell id="eR2ikbyH4FNa1QQmH7Wa-21" value="" style="edgeStyle=orthogonalEdgeStyle;html=1;verticalAlign=bottom;endArrow=open;endSize=8;strokeColor=#ff0000;rounded=0;entryX=0.5;entryY=0;entryDx=0;entryDy=0;" edge="1" parent="1" target="eR2ikbyH4FNa1QQmH7Wa-23">
          <mxGeometry relative="1" as="geometry">
            <mxPoint x="390" y="580" as="targetPoint" />
            <mxPoint x="395" y="550" as="sourcePoint" />
          </mxGeometry>
        </mxCell>
        <mxCell id="eR2ikbyH4FNa1QQmH7Wa-25" value="" style="endArrow=classic;html=1;rounded=0;exitX=0.5;exitY=1;exitDx=0;exitDy=0;entryX=0.5;entryY=0;entryDx=0;entryDy=0;" edge="1" parent="1" source="eR2ikbyH4FNa1QQmH7Wa-3" target="eR2ikbyH4FNa1QQmH7Wa-4">
          <mxGeometry width="50" height="50" relative="1" as="geometry">
            <mxPoint x="240" y="160" as="sourcePoint" />
            <mxPoint x="290" y="110" as="targetPoint" />
          </mxGeometry>
        </mxCell>
        <mxCell id="eR2ikbyH4FNa1QQmH7Wa-26" value="" style="endArrow=classic;html=1;rounded=0;exitX=0.5;exitY=1;exitDx=0;exitDy=0;entryX=0.5;entryY=0;entryDx=0;entryDy=0;" edge="1" parent="1" source="eR2ikbyH4FNa1QQmH7Wa-4" target="eR2ikbyH4FNa1QQmH7Wa-10">
          <mxGeometry width="50" height="50" relative="1" as="geometry">
            <mxPoint x="170" y="360" as="sourcePoint" />
            <mxPoint x="220" y="310" as="targetPoint" />
          </mxGeometry>
        </mxCell>
        <mxCell id="eR2ikbyH4FNa1QQmH7Wa-27" value="" style="endArrow=classic;html=1;rounded=0;exitX=0.5;exitY=1;exitDx=0;exitDy=0;" edge="1" parent="1">
          <mxGeometry width="50" height="50" relative="1" as="geometry">
            <mxPoint x="394.78" y="400" as="sourcePoint" />
            <mxPoint x="395" y="430" as="targetPoint" />
          </mxGeometry>
        </mxCell>
        <mxCell id="eR2ikbyH4FNa1QQmH7Wa-28" value="" style="endArrow=classic;html=1;rounded=0;exitX=0.5;exitY=1;exitDx=0;exitDy=0;entryX=0.5;entryY=0;entryDx=0;entryDy=0;" edge="1" parent="1" source="eR2ikbyH4FNa1QQmH7Wa-11" target="eR2ikbyH4FNa1QQmH7Wa-19">
          <mxGeometry width="50" height="50" relative="1" as="geometry">
            <mxPoint x="230" y="530" as="sourcePoint" />
            <mxPoint x="280" y="480" as="targetPoint" />
          </mxGeometry>
        </mxCell>
        <mxCell id="eR2ikbyH4FNa1QQmH7Wa-29" value="" style="endArrow=classic;html=1;rounded=0;exitX=0.5;exitY=1;exitDx=0;exitDy=0;" edge="1" parent="1" source="eR2ikbyH4FNa1QQmH7Wa-19" target="eR2ikbyH4FNa1QQmH7Wa-17">
          <mxGeometry width="50" height="50" relative="1" as="geometry">
            <mxPoint x="230" y="760" as="sourcePoint" />
            <mxPoint x="280" y="710" as="targetPoint" />
          </mxGeometry>
        </mxCell>
        <mxCell id="eR2ikbyH4FNa1QQmH7Wa-30" value="" style="endArrow=classic;html=1;rounded=0;exitX=0.5;exitY=1;exitDx=0;exitDy=0;entryX=0.5;entryY=0;entryDx=0;entryDy=0;" edge="1" parent="1" source="eR2ikbyH4FNa1QQmH7Wa-17" target="eR2ikbyH4FNa1QQmH7Wa-18">
          <mxGeometry width="50" height="50" relative="1" as="geometry">
            <mxPoint x="260" y="860" as="sourcePoint" />
            <mxPoint x="310" y="810" as="targetPoint" />
          </mxGeometry>
        </mxCell>
        <mxCell id="eR2ikbyH4FNa1QQmH7Wa-31" value="" style="endArrow=classic;html=1;rounded=0;exitX=0;exitY=0.5;exitDx=0;exitDy=0;entryX=0.5;entryY=0;entryDx=0;entryDy=0;" edge="1" parent="1" source="eR2ikbyH4FNa1QQmH7Wa-8" target="eR2ikbyH4FNa1QQmH7Wa-9">
          <mxGeometry width="50" height="50" relative="1" as="geometry">
            <mxPoint x="300" y="220" as="sourcePoint" />
            <mxPoint x="320" y="220" as="targetPoint" />
            <Array as="points">
              <mxPoint x="298" y="230" />
            </Array>
          </mxGeometry>
        </mxCell>
        <mxCell id="eR2ikbyH4FNa1QQmH7Wa-33" value="" style="endArrow=classic;html=1;rounded=0;exitX=1;exitY=0.5;exitDx=0;exitDy=0;entryX=0;entryY=0.5;entryDx=0;entryDy=0;" edge="1" parent="1" source="eR2ikbyH4FNa1QQmH7Wa-9" target="eR2ikbyH4FNa1QQmH7Wa-7">
          <mxGeometry width="50" height="50" relative="1" as="geometry">
            <mxPoint x="430" y="229.78" as="sourcePoint" />
            <mxPoint x="500" y="229.78" as="targetPoint" />
            <Array as="points">
              <mxPoint x="400" y="275" />
            </Array>
          </mxGeometry>
        </mxCell>
        <mxCell id="eR2ikbyH4FNa1QQmH7Wa-34" value="" style="endArrow=classic;html=1;rounded=0;exitX=1;exitY=0.5;exitDx=0;exitDy=0;" edge="1" parent="1" source="eR2ikbyH4FNa1QQmH7Wa-8">
          <mxGeometry width="50" height="50" relative="1" as="geometry">
            <mxPoint x="580" y="260" as="sourcePoint" />
            <mxPoint x="630" y="570" as="targetPoint" />
            <Array as="points">
              <mxPoint x="630" y="230" />
            </Array>
          </mxGeometry>
        </mxCell>
        <mxCell id="eR2ikbyH4FNa1QQmH7Wa-37" value="" style="ellipse;html=1;shape=endState;fillColor=#000000;strokeColor=#ff0000;" vertex="1" parent="1">
          <mxGeometry x="290" y="600" width="30" height="30" as="geometry" />
        </mxCell>
        <mxCell id="eR2ikbyH4FNa1QQmH7Wa-38" value="" style="rhombus;whiteSpace=wrap;html=1;" vertex="1" parent="1">
          <mxGeometry x="372.5" y="560" width="50" height="20" as="geometry" />
        </mxCell>
        <mxCell id="eR2ikbyH4FNa1QQmH7Wa-40" value="" style="endArrow=classic;html=1;rounded=0;exitX=0;exitY=0.5;exitDx=0;exitDy=0;entryX=0.5;entryY=0;entryDx=0;entryDy=0;" edge="1" parent="1" source="eR2ikbyH4FNa1QQmH7Wa-38">
          <mxGeometry width="50" height="50" relative="1" as="geometry">
            <mxPoint x="307.5" y="560" as="sourcePoint" />
            <mxPoint x="305" y="600.0000000000001" as="targetPoint" />
            <Array as="points">
              <mxPoint x="305.5" y="570" />
            </Array>
          </mxGeometry>
        </mxCell>
        <mxCell id="eR2ikbyH4FNa1QQmH7Wa-42" value="" style="endArrow=classic;html=1;rounded=0;exitX=1;exitY=0.5;exitDx=0;exitDy=0;entryX=1;entryY=0.5;entryDx=0;entryDy=0;" edge="1" parent="1" source="eR2ikbyH4FNa1QQmH7Wa-38" target="eR2ikbyH4FNa1QQmH7Wa-18">
          <mxGeometry width="50" height="50" relative="1" as="geometry">
            <mxPoint x="610" y="740" as="sourcePoint" />
            <mxPoint x="630" y="831.7777777777778" as="targetPoint" />
            <Array as="points">
              <mxPoint x="630" y="570" />
              <mxPoint x="630" y="825" />
            </Array>
          </mxGeometry>
        </mxCell>
        <mxCell id="eR2ikbyH4FNa1QQmH7Wa-43" value="" style="ellipse;html=1;shape=startState;fillColor=#000000;strokeColor=#ff0000;" vertex="1" parent="1">
          <mxGeometry x="382.5" y="520" width="30" height="30" as="geometry" />
        </mxCell>
        <mxCell id="eR2ikbyH4FNa1QQmH7Wa-44" value="" style="edgeStyle=orthogonalEdgeStyle;html=1;verticalAlign=bottom;endArrow=open;endSize=8;strokeColor=#ff0000;rounded=0;entryX=0.5;entryY=0;entryDx=0;entryDy=0;" edge="1" parent="1" source="eR2ikbyH4FNa1QQmH7Wa-43">
          <mxGeometry relative="1" as="geometry">
            <mxPoint x="397.5" y="560" as="targetPoint" />
          </mxGeometry>
        </mxCell>
        <mxCell id="eR2ikbyH4FNa1QQmH7Wa-45" value="[Товар есть на складе]" style="text;html=1;strokeColor=none;fillColor=none;align=center;verticalAlign=middle;whiteSpace=wrap;rounded=0;fontSize=9;" vertex="1" parent="1">
          <mxGeometry x="253.5" y="220" width="129" height="8" as="geometry" />
        </mxCell>
        <mxCell id="eR2ikbyH4FNa1QQmH7Wa-47" value="[Иначе]" style="text;html=1;strokeColor=none;fillColor=none;align=center;verticalAlign=middle;whiteSpace=wrap;rounded=0;fontSize=9;" vertex="1" parent="1">
          <mxGeometry x="415" y="218" width="132.5" height="10" as="geometry" />
        </mxCell>
        <mxCell id="eR2ikbyH4FNa1QQmH7Wa-48" value="Наличие товара" style="text;html=1;strokeColor=none;fillColor=none;align=center;verticalAlign=middle;whiteSpace=wrap;rounded=0;fontSize=9;" vertex="1" parent="1">
          <mxGeometry x="240" y="180" width="60" height="30" as="geometry" />
        </mxCell>
        <mxCell id="eR2ikbyH4FNa1QQmH7Wa-49" value="[Товар оплачен]" style="text;html=1;strokeColor=none;fillColor=none;align=center;verticalAlign=middle;whiteSpace=wrap;rounded=0;fontSize=9;" vertex="1" parent="1">
          <mxGeometry x="272.5" y="559" width="129" height="8" as="geometry" />
        </mxCell>
        <mxCell id="eR2ikbyH4FNa1QQmH7Wa-50" value="[Иначе]" style="text;html=1;strokeColor=none;fillColor=none;align=center;verticalAlign=middle;whiteSpace=wrap;rounded=0;fontSize=9;" vertex="1" parent="1">
          <mxGeometry x="415" y="558" width="132.5" height="10" as="geometry" />
        </mxCell>
        <mxCell id="eR2ikbyH4FNa1QQmH7Wa-51" value="Оплата товара" style="text;html=1;strokeColor=none;fillColor=none;align=center;verticalAlign=middle;whiteSpace=wrap;rounded=0;fontSize=9;" vertex="1" parent="1">
          <mxGeometry x="240" y="520" width="60" height="30" as="geometry" />
        </mxCell>
      </root>
    </mxGraphModel>
  </diagram>
</mxfile>
